# xmcd
#
# Track frame offsets: 
#        150
#        13162
#        28912
#        44960
#        61400
#        74527
#        86477
#        100520
#        112427
#        127765
#        141520
#        157547
#        171585
#        186215
#        198972
#        211740
#        225220
#
# Disc length: 3193 seconds
#
# Revision: 0
# Processed by: cddbd v1.5.2PL0 Copyright (c) Steve Scherf et al.
# Submitted via: ExactAudioCopy v0.99pb4
#
DISCID=f00c7711
DTITLE=Prodigal Son - Robert Wilkins
DYEAR=1900
DGENRE=Blues
TTITLE0=Rolling Stone part-1
TTITLE1=Rolling Stone part-2
TTITLE2=Jail House Blues
TTITLE3=I Do Blues
TTITLE4=That's No Way To Get Along (Prodigal Son)
TTITLE5=Alabama Blues
TTITLE6=Long Train Blues
TTITLE7=Fallin' Down Blues
TTITLE8=Nashville Stonewall Blues
TTITLE9=Police Sergeant Blues
TTITLE10=Get Away Blues
TTITLE11=I'll Go With Her Blues
TTITLE12=Dirty Deal Blues
TTITLE13=Black Rat Blues
TTITLE14=New Stock Yard Blues
TTITLE15=Old Jim Canan's
TTITLE16=Losin' Out Blues
EXTD=
EXTT0=
EXTT1=
EXTT2=
EXTT3=
EXTT4=
EXTT5=
EXTT6=
EXTT7=
EXTT8=
EXTT9=
EXTT10=
EXTT11=
EXTT12=
EXTT13=
EXTT14=
EXTT15=
EXTT16=
PLAYORDER=
